PathFileType	4	(X/Y/Z)	RBDS023\RBDS023runT25.trc
DataRate	CameraRate	NumFrames	NumMarkers	Units	OrigDataRate	OrigDataStartFrame	OrigNumFrames
150.000000	150.000000	4	33	mm	150.000000	3375	4500
Frame#	Time	L.ASIS			L.Heel.Bottom			L.Heel.Lateral			L.Heel.Top			L.Iliac.Crest			L.MT1			L.MT5			L.PSIS			L.Shank.Bottom.Lateral			L.Shank.Bottom.Medial			L.Shank.Top.Lateral			L.Shank.Top.Medial			L.Thigh.Bottom.Lateral			L.Thigh.Bottom.Medial			L.Thigh.Top.Lateral			L.Thigh.Top.Medial			R.ASIS			R.ASY			R.Heel.Bottom			R.Heel.Lateral			R.Heel.Top			R.Iliac.Crest			R.MT1			R.MT5			R.PSIS			R.Shank.Bottom.Lateral			R.Shank.Bottom.Medial			R.Shank.Top.Lateral			R.Shank.Top.Medial			R.Thigh.Bottom.Lateral			R.Thigh.Bottom.Medial			R.Thigh.Top.Lateral			R.Thigh.Top.Medial			
		X1	Y1	Z1	X2	Y2	Z2	X3	Y3	Z3	X4	Y4	Z4	X5	Y5	Z5	X6	Y6	Z6	X7	Y7	Z7	X8	Y8	Z8	X9	Y9	Z9	X10	Y10	Z10	X11	Y11	Z11	X12	Y12	Z12	X13	Y13	Z13	X14	Y14	Z14	X15	Y15	Z15	X16	Y16	Z16	X17	Y17	Z17	X18	Y18	Z18	X19	Y19	Z19	X20	Y20	Z20	X21	Y21	Z21	X22	Y22	Z22	X23	Y23	Z23	X24	Y24	Z24	X25	Y25	Z25	X26	Y26	Z26	X27	Y27	Z27	X28	Y28	Z28	X29	Y29	Z29	X30	Y30	Z30	X31	Y31	Z31	X32	Y32	Z32	X33	Y33	Z33	

3376	22.5	2415.036947209003	1058.205126545838	888.9918819814189	1782.683629405336	242.5279398678383	955.7246099036682	1812.172971171047	233.6407067819464	913.1539555565845	1824.563652730714	264.4823498051319	952.8971686444127	2367.524314690153	1144.009655323487	841.5353264345715	1933.729749203679	76.2057940264591	979.3500449383201	1896.263971487603	95.02292387962243	870.7662615133828	2236.947066136313	1111.445946422687	933.3012996342669	1921.832130629592	284.6170461391189	885.9212649921697	1886.810838895972	306.6810595155944	916.1139533744639	1955.332391973304	355.84038589646	867.4175494858246	1922.32772828207	381.5685749303008	900.0569420015679	2210.803323638323	728.1904778606893	829.0127299241391	2154.918300590837	753.2208351024688	865.9254184343738	2244.627492585373	832.4407847949997	814.627194641727	2192.420199340484	856.1420162946489	852.1166771173528	2407.900101389904	1062.132079480663	1098.113075657617	2608.306028409968	138.6590047739501	1025.460248565231	2433.738897675579	42.93699126546202	1011.189894238261	2458.364044775456	64.44619123490678	1056.389684888328	2433.244391673013	90.67141882315779	1014.196248791735	2328.09137001606	1155.454766565015	1138.317444874528	2647.850635788423	102.1722317843824	975.2990372303174	2623.176082582229	83.96998340579607	1086.130676082524	2234.666446498864	1110.963324156222	1043.121284489717	2487.850963903647	202.2148227003823	1079.943517147268	2439.093011796212	200.8653535852744	1052.721566527546	2470.782852213284	277.9712313113548	1103.93267464949	2424.232093305935	276.4733320137626	1075.442167946997	2415.691189878291	670.8354655884054	1137.109273925508	2361.991724275334	650.1428368595771	1092.359046244527	2364.817268553044	767.2345776854027	1149.73384761134	2314.215070023155	747.7247077022707	1107.210124195899	
3377	22.50666666666667	2416.61516159828	1059.059693528145	889.2563671634899	1774.783555887928	254.8223170581177	956.9409943335856	1803.516685670752	245.0144349970761	914.159970469423	1817.336011416805	275.4408713995048	953.7367370020172	2368.885410009055	1145.494035641188	842.3648623878257	1920.881935940029	83.94675540262395	979.5493895155128	1883.081553901266	103.585069645407	871.3888661464471	2238.648812489312	1112.152691877991	933.5556752842954	1914.753342216871	292.3060198372627	886.4890706836767	1880.449720127855	315.4309855643255	916.6722497788003	1950.459207798767	362.3649028417449	867.9646812034327	1918.411989832982	389.0935031560369	900.66255891866	2213.085427668685	728.2730333033621	829.2187614152118	2156.952609199267	753.2932113378553	865.7140729280188	2246.8324857296	832.5534611827439	814.76565851358	2194.392035248146	856.2494372395355	851.8800783414298	2409.359618409172	1062.500298101467	1098.269487813733	2622.434405506075	143.2224870463511	1025.804056400457	2452.872415618522	38.08261588583686	1012.445983940498	2476.83385512275	60.52377354167374	1057.638648461166	2449.775844796634	85.77866784651906	1015.844388308591	2329.403121026452	1155.758419629036	1138.941736271589	2663.526213702798	109.4899447805067	974.9223938963353	2640.871274577289	88.78406710756941	1086.015998126539	2236.159489871436	1111.549425916867	1043.576556000479	2499.261340232583	201.021331715184	1081.111360941285	2450.501621253383	197.5616517432374	1053.940607761052	2478.990182065522	275.9686733725252	1105.140197873255	2432.472876228743	272.5142838224307	1076.656899260966	2413.083596099531	669.4354994785658	1138.266415525668	2359.18707768018	649.5535545341178	1093.470680062466	2363.435578911633	766.4420403093894	1151.120962643911	2312.750443160638	747.7806263880473	1108.403740792869	
3378	22.51333333333334	2418.01005455598	1059.433385257275	889.4802733124453	1767.080180928713	267.2689216265255	958.0135679166432	1795.045088631668	256.5958008321189	915.0291455629057	1810.232532451222	286.5704439813421	954.4513679513443	2369.913756470519	1146.291393196014	843.0523823746649	1908.274683624821	92.22557997629045	979.7202176485007	1870.199476460855	112.6735056450446	871.9044867387754	2240.076914833299	1112.215828420042	933.8445076958961	1907.978710892968	300.2310905550831	887.0076516479019	1874.544848712514	324.5010968171542	917.2193581760788	1946.141652387289	368.9315831970104	868.5082553226913	1915.191164512547	396.7385521786203	901.2978986219022	2216.022442250764	727.4019139608926	829.5765896161369	2159.556090919546	752.208940936442	865.6352627229131	2249.30505686583	831.8270480993735	815.1259951758955	2196.551659012313	855.3276975965483	851.8417900891436	2410.60235565261	1062.460274699713	1098.413214660994	2634.134846797297	147.3520911402791	1026.376389361821	2469.271853654629	34.16195394521255	1013.658648376685	2492.599988437345	57.37881807013584	1058.864761444114	2463.899225818284	81.74182627069047	1017.415067728212	2330.549816346601	1155.476981426719	1139.590789872497	2676.505914314214	116.1344084826991	974.8805415671884	2655.654537071012	93.27055000410587	1086.149521184792	2237.397450440845	1111.497494005735	1044.044581584805	2508.782456510432	200.0872719117777	1082.278584938309	2460.112089740988	194.7993501524479	1055.085854004367	2485.769310148325	274.2532377030054	1106.284093167134	2439.376416039784	269.1087209241912	1077.732273247828	2410.830568605794	667.9404374887755	1139.288086455426	2356.801392573342	648.8323668189934	1094.386241591804	2362.271774944731	765.4601340277555	1152.390242078214	2311.559783438659	747.6061419285786	1109.434843425709	
3379	22.52	2419.234785411109	1059.322772337458	889.6800233829716	1759.775237953284	279.9282657032226	958.8519100546038	1786.997853328281	268.4287846054539	915.6865103610724	1803.473848121869	297.9060230243496	954.9829216149382	2370.615687430449	1146.410909392592	843.6048588405069	1896.018249488599	100.983173801159	979.8180451468119	1857.794669399759	122.2665151140477	872.2559931491381	2241.230024070721	1111.613894875943	934.1508901675542	1901.673792775858	308.3916600240519	887.4338444762643	1869.263120843698	333.8563033014606	917.7266497194011	1942.499305070259	375.544746815342	869.0324105404115	1912.777605741931	404.4692907810942	901.9596000834223	2219.561507162944	725.5963361710773	830.0849594705876	2162.691968971596	749.9921869690705	865.7166688447421	2252.009434755782	830.2720394271018	815.7156804719198	2198.887616250041	853.3898808017875	852.0457150419014	2411.605399155355	1062.035844244343	1098.573477295833	2643.330233776067	150.6688314500053	1027.171427628719	2482.60132044953	30.97692698957372	1014.745752194071	2505.341087971251	54.79531498512235	1059.992373714761	2475.348324218639	78.40017727197454	1018.817112415623	2331.487360353585	1154.64733414559	1140.240696200441	2686.735109667005	121.6310777614509	975.1927239762823	2667.33797228297	96.98507610950438	1086.535905744309	2238.364239194873	1110.786207883365	1044.491623119517	2516.288649760147	199.1740237184388	1083.403074368916	2467.763377317468	192.3796085774311	1056.128408455514	2491.030415151761	272.640233392265	1107.34010576779	2444.821027006858	266.1088590724507	1078.657957220566	2408.977167601818	666.3705964660487	1140.114604641685	2354.844450182224	647.9527631041816	1095.097963971447	2361.366884768855	764.318151765945	1153.453862545146	2310.641823203033	747.1837090529436	1110.277326443788	
